<?xml version="1.0" standalone="no"?>
<!DOCTYPE svg PUBLIC "-//W3C//DTD SVG 20010904//EN"
 "http://www.w3.org/TR/2001/REC-SVG-20010904/DTD/svg10.dtd">
<svg version="1.0" xmlns="http://www.w3.org/2000/svg"
 width="1472.000000pt" height="1472.000000pt" viewBox="0 0 1472.000000 1472.000000"
 preserveAspectRatio="xMidYMid meet">
<metadata>
Created by potrace 1.14, written by Peter Selinger 2001-2017
</metadata>
<g transform="translate(0.000000,1472.000000) scale(0.100000,-0.100000)"
fill="#000000" stroke="none">
<path d="M13208 11499 c-26 -4 -57 -14 -70 -23 -12 -9 -32 -16 -45 -16 -12 0
-25 -5 -29 -11 -6 -11 -58 -8 -129 8 -53 12 -92 7 -133 -16 -35 -19 -67 -23
-172 -25 -90 -1 -95 -2 -107 -26 -26 -51 -6 -125 48 -183 10 -11 19 -26 19
-32 0 -7 9 -20 20 -30 11 -10 20 -23 20 -30 0 -6 19 -32 43 -57 23 -26 53 -60
66 -77 14 -16 35 -35 47 -42 23 -12 23 -31 1 -28 -7 1 -19 -1 -27 -4 -13 -5
-40 -8 -165 -19 -16 -2 -35 -6 -40 -10 -6 -3 -30 -9 -54 -13 -24 -3 -51 -10
-60 -15 -9 -5 -38 -14 -66 -20 -68 -14 -68 -15 -82 -23 -7 -5 -13 -5 -13 -1 0
4 -9 -1 -20 -11 -11 -10 -20 -15 -20 -12 0 4 -20 -5 -44 -18 -25 -14 -51 -25
-60 -25 -8 0 -16 -4 -18 -8 -1 -5 -28 -22 -58 -38 -111 -62 -124 -69 -144 -86
-11 -10 -26 -18 -33 -18 -7 0 -13 -4 -13 -9 0 -5 -13 -14 -30 -21 -16 -7 -30
-16 -30 -21 0 -5 -5 -9 -11 -9 -6 0 -16 -6 -23 -12 -8 -7 -35 -31 -61 -53 -69
-57 -205 -194 -229 -230 -12 -16 -35 -46 -53 -65 -17 -19 -32 -39 -31 -44 0
-5 -5 -12 -10 -15 -11 -7 -92 -149 -92 -162 0 -5 -4 -9 -8 -9 -9 0 -52 -81
-52 -99 0 -6 -5 -11 -10 -11 -6 0 -9 -3 -8 -7 1 -5 -8 -28 -19 -53 -12 -25
-23 -52 -25 -60 -2 -8 -5 -17 -8 -20 -12 -11 -60 -109 -60 -121 0 -7 -7 -20
-15 -29 -8 -9 -16 -25 -18 -36 -1 -10 -10 -34 -20 -53 -9 -19 -17 -40 -17 -48
0 -7 -5 -13 -12 -13 -6 0 -9 -3 -5 -6 3 -3 -16 -48 -43 -100 -27 -52 -46 -94
-44 -94 3 0 -2 -10 -10 -22 -9 -12 -16 -28 -16 -35 0 -16 -92 -206 -103 -214
-5 -3 -8 -9 -8 -13 1 -12 -33 -76 -41 -76 -5 0 -7 -4 -3 -9 3 -5 0 -16 -7 -23
-7 -8 -26 -38 -42 -68 -16 -30 -34 -62 -41 -70 -6 -8 -27 -40 -45 -70 -18 -30
-35 -57 -39 -60 -3 -3 -12 -17 -20 -32 -8 -15 -21 -36 -30 -46 -9 -10 -20 -25
-26 -34 -5 -9 -36 -53 -67 -98 -32 -45 -58 -84 -58 -87 0 -3 -9 -13 -19 -22
-11 -10 -21 -23 -23 -31 -2 -7 -14 -25 -28 -41 -14 -15 -30 -34 -35 -41 -76
-94 -104 -126 -109 -121 -3 4 -6 1 -6 -5 0 -7 -47 -59 -104 -116 -57 -58 -102
-107 -99 -109 2 -3 -5 -8 -16 -12 -12 -3 -21 -10 -21 -14 0 -13 -118 -131
-130 -131 -5 0 -10 -7 -10 -15 0 -8 -4 -15 -9 -15 -4 0 -44 -34 -87 -76 -80
-77 -147 -134 -158 -134 -6 0 -14 -7 -81 -65 -16 -14 -57 -42 -90 -62 -96 -57
-169 -106 -176 -116 -3 -5 -9 -8 -13 -8 -3 1 -30 -13 -59 -31 -28 -18 -64 -40
-79 -47 -16 -8 -28 -18 -28 -23 0 -5 -4 -6 -10 -3 -5 3 -10 1 -10 -6 0 -7 -3
-9 -7 -6 -3 4 -12 2 -19 -3 -16 -14 -135 -73 -153 -76 -8 -2 -18 -9 -22 -16
-5 -7 -9 -10 -9 -6 0 4 -21 -2 -47 -13 -25 -11 -53 -21 -62 -23 -9 -2 -34 -11
-55 -20 -22 -10 -47 -20 -55 -22 -9 -2 -37 -9 -63 -16 -27 -6 -48 -15 -48 -20
0 -5 -4 -7 -9 -4 -5 4 -20 2 -34 -3 -13 -5 -37 -12 -53 -15 -26 -4 -50 -9
-104 -21 -8 -2 -15 -4 -15 -5 0 -1 -9 -3 -20 -4 -11 -2 -40 -7 -65 -11 -25 -4
-54 -9 -65 -11 -73 -12 -127 -19 -245 -30 -158 -16 -895 -2 -895 16 0 2 -20 4
-45 5 -25 2 -45 4 -45 5 0 1 -16 3 -35 5 -19 1 -35 3 -35 4 0 1 -22 4 -50 7
-27 3 -61 7 -75 10 -14 4 -40 7 -57 8 -18 0 -33 4 -33 7 0 3 -10 5 -22 4 -13
-1 -27 0 -33 4 -5 3 -17 6 -25 8 -42 6 -107 17 -120 20 -8 2 -26 6 -40 8 -14
1 -25 4 -25 5 0 1 -11 4 -60 14 -5 1 -16 5 -22 9 -7 5 -13 6 -13 3 0 -2 -15 0
-32 5 -18 6 -42 12 -53 15 -29 7 -38 10 -55 17 -8 3 -44 15 -80 27 -36 11 -74
25 -85 29 -18 8 -50 21 -65 26 -14 5 -68 27 -85 35 -171 79 -213 98 -232 104
-13 4 -23 11 -23 16 0 5 -13 11 -29 15 -16 3 -35 13 -41 21 -7 7 -16 11 -21 8
-5 -3 -9 0 -9 6 0 6 -4 8 -10 5 -6 -3 -10 -3 -10 2 0 4 -10 13 -23 18 -31 15
-111 59 -117 65 -6 6 -39 25 -93 53 -23 11 -44 23 -47 26 -9 10 -64 42 -82 48
-10 3 -18 9 -18 14 0 5 -7 9 -15 9 -8 0 -15 5 -15 10 0 6 -6 10 -13 10 -7 0
-23 9 -35 20 -12 11 -24 20 -27 20 -9 0 -74 48 -127 93 -12 9 -24 17 -28 17
-4 0 -18 10 -32 23 -49 43 -78 67 -84 67 -4 0 -17 11 -30 26 -13 14 -24 23
-24 20 0 -20 -433 416 -592 595 -13 15 -40 45 -60 68 -21 23 -38 46 -38 52 0
6 -4 7 -10 4 -5 -3 -10 0 -10 9 0 8 -3 16 -8 18 -4 2 -25 25 -47 53 -22 27
-50 59 -62 71 -13 12 -23 27 -23 33 0 7 -5 9 -10 6 -6 -3 -10 1 -10 9 0 9 -7
16 -15 16 -8 0 -14 4 -13 8 3 10 -20 36 -122 138 -41 41 -78 74 -82 74 -4 0
-8 6 -8 14 0 8 -4 16 -10 18 -5 2 -68 60 -139 131 -71 70 -134 127 -140 127
-6 0 -11 6 -11 13 0 7 -12 21 -27 32 -14 11 -39 32 -55 47 -16 15 -47 42 -70
60 -22 18 -46 39 -53 46 -8 6 -16 12 -19 12 -5 0 -16 8 -69 53 -12 10 -43 30
-69 44 -26 14 -48 30 -48 35 0 4 -6 8 -13 8 -8 0 -22 9 -32 20 -10 11 -24 20
-32 20 -7 0 -13 4 -13 8 0 5 -15 16 -32 25 -18 10 -64 35 -103 57 -38 22 -77
43 -85 46 -21 8 -44 15 -50 15 -3 0 -12 6 -20 14 -12 10 -166 70 -205 80 -5 1
-14 4 -20 5 -5 1 -21 7 -35 12 -14 5 -34 12 -45 14 -162 32 -201 38 -324 49
-30 2 -56 6 -58 9 -2 2 -20 0 -39 -4 -18 -4 -34 -5 -34 -1 0 9 20 37 20 28 0
-5 6 -2 14 5 7 7 24 20 36 28 64 42 220 226 220 259 0 5 6 14 14 20 12 10 18
27 32 91 5 24 -20 65 -41 67 -53 7 -65 10 -71 16 -4 3 -14 3 -23 -2 -9 -4 -23
-7 -31 -6 -8 1 -21 -3 -27 -8 -8 -6 -13 -6 -13 0 0 5 -9 9 -20 10 -11 1 -20
-3 -20 -9 0 -6 -6 -5 -16 3 -20 16 -194 13 -194 -3 0 -4 -9 -4 -21 0 -12 5
-44 5 -72 1 -50 -6 -185 -5 -257 3 -19 2 -48 1 -65 -3 -89 -23 -114 -25 -235
-13 -56 5 -68 3 -88 -14 -37 -32 -47 -96 -28 -182 6 -30 31 -76 53 -97 13 -12
23 -25 23 -28 0 -11 29 -42 94 -100 6 -5 23 -16 39 -24 15 -8 27 -18 27 -21 0
-4 15 -13 33 -21 17 -7 34 -16 37 -19 6 -7 79 -42 82 -39 6 5 48 -22 48 -31 0
-6 -3 -10 -7 -9 -15 2 -53 -13 -53 -21 0 -4 -15 -10 -32 -14 -42 -8 -128 -47
-128 -58 0 -4 -7 -8 -14 -8 -8 0 -37 -12 -63 -27 -26 -14 -68 -37 -93 -50 -25
-13 -44 -30 -42 -36 2 -7 0 -9 -3 -5 -11 10 -167 -112 -219 -171 -12 -13 -37
-40 -56 -61 -19 -21 -42 -48 -50 -60 -8 -12 -21 -28 -27 -36 -7 -7 -13 -17
-13 -23 0 -6 -5 -11 -12 -11 -6 0 -8 -3 -5 -6 4 -4 -3 -15 -15 -25 -11 -11
-18 -19 -14 -19 4 0 -2 -12 -13 -26 -11 -15 -19 -30 -16 -34 3 -4 -2 -10 -10
-14 -8 -3 -15 -15 -15 -26 0 -11 -4 -20 -9 -20 -26 0 -131 -292 -146 -405 -20
-154 -23 -277 -11 -390 7 -70 25 -203 30 -231 2 -10 11 -58 20 -105 9 -48 25
-113 37 -145 11 -33 21 -66 22 -74 4 -26 38 -123 61 -175 13 -27 34 -77 47
-110 13 -33 28 -63 32 -66 5 -3 8 -9 8 -13 -2 -12 51 -121 62 -128 7 -4 9 -8
5 -8 -7 0 17 -42 70 -125 6 -11 16 -29 22 -40 5 -11 22 -41 37 -67 15 -25 45
-76 66 -112 20 -36 43 -71 50 -78 6 -7 18 -25 26 -40 8 -15 23 -37 33 -48 10
-11 15 -20 11 -20 -4 0 -1 -6 7 -13 8 -7 36 -43 62 -82 26 -38 57 -82 70 -97
29 -34 50 -60 139 -178 39 -52 77 -99 83 -105 7 -5 23 -26 36 -45 13 -19 72
-93 130 -165 58 -71 112 -139 120 -149 23 -28 166 -179 238 -249 226 -221 236
-231 382 -357 35 -30 73 -63 84 -73 56 -48 66 -57 92 -74 16 -10 38 -27 49
-38 37 -34 65 -55 75 -55 6 0 10 -4 10 -8 0 -5 12 -15 28 -23 15 -8 29 -16 32
-20 3 -3 46 -34 95 -69 50 -35 99 -72 110 -81 11 -10 40 -28 65 -41 25 -13 84
-50 132 -81 48 -32 99 -63 115 -70 15 -7 48 -25 73 -41 42 -28 139 -80 150
-81 3 0 52 -26 110 -57 126 -68 355 -177 425 -203 28 -10 57 -24 66 -32 8 -7
19 -13 23 -13 4 0 40 -14 79 -31 96 -40 101 -42 182 -74 39 -14 84 -32 100
-39 68 -29 81 -35 100 -39 20 -5 298 -102 325 -114 8 -3 17 -7 20 -8 3 -1 12
-4 20 -7 22 -9 230 -73 335 -103 50 -15 110 -34 135 -42 25 -8 54 -17 64 -19
21 -4 82 -22 106 -31 8 -3 22 -7 30 -9 32 -6 106 -26 125 -34 18 -7 275 -69
315 -76 8 -2 53 -13 100 -24 47 -12 94 -23 105 -25 11 -2 34 -7 50 -10 17 -4
39 -8 50 -10 11 -2 34 -6 50 -9 17 -4 46 -9 65 -12 19 -3 42 -7 50 -9 15 -4
63 -13 110 -20 14 -2 34 -6 45 -8 11 -3 45 -8 76 -11 59 -7 68 -8 134 -21 22
-4 58 -9 80 -11 22 -2 63 -5 90 -8 28 -3 109 -8 180 -11 72 -2 141 -7 155 -10
74 -16 859 -24 1070 -12 47 3 85 6 85 7 0 1 45 3 100 5 55 3 118 7 140 10 22
3 63 7 90 10 28 3 73 7 100 10 47 5 65 8 125 20 14 2 50 7 80 11 30 3 58 8 62
10 4 3 34 7 66 10 31 2 80 9 108 14 55 12 78 16 139 25 22 3 58 11 80 17 22 6
47 12 55 13 25 3 104 17 125 22 11 3 51 11 88 19 38 8 72 16 76 19 7 4 52 14
91 20 27 4 74 16 100 26 14 5 36 12 50 15 30 6 40 9 60 17 36 13 155 47 167
47 7 0 13 5 13 12 0 6 3 9 6 5 4 -3 22 0 40 8 19 8 36 14 39 15 11 2 43 13 75
28 19 9 38 15 43 14 4 -1 7 2 7 6 0 5 6 9 13 9 12 0 59 20 182 78 233 110 287
135 290 135 9 0 198 92 243 118 28 18 52 29 52 26 0 -5 11 1 65 36 17 11 48
29 70 40 22 11 56 30 75 42 19 11 55 32 80 46 25 14 58 34 75 46 16 12 37 26
46 31 105 62 128 77 131 83 2 4 30 25 63 47 33 22 63 44 66 48 3 5 9 7 12 5 3
-1 17 7 31 19 15 13 29 23 32 23 3 0 44 27 91 61 92 66 91 64 143 107 19 15
62 49 95 74 33 26 77 63 98 82 21 20 40 36 43 36 2 0 12 8 22 17 29 29 174
158 211 189 19 16 77 72 130 124 53 52 118 114 143 137 26 22 44 44 41 47 -4
3 -1 6 6 6 19 0 191 181 191 201 0 5 8 9 17 9 9 0 14 3 10 6 -3 3 5 16 17 28
18 17 91 102 138 161 5 6 18 21 31 36 12 14 36 42 52 63 17 22 36 45 43 52 6
7 12 15 12 19 0 3 5 11 10 18 6 7 22 26 36 42 13 17 34 47 46 68 12 20 25 37
30 37 4 0 8 5 8 11 0 7 11 22 24 34 14 13 22 26 19 29 -4 3 -1 6 5 6 7 0 12 6
12 13 0 8 9 22 20 32 11 10 20 22 20 27 0 11 42 72 53 76 4 2 7 10 7 18 0 8 4
14 8 14 4 0 14 16 21 35 7 19 18 41 24 48 7 7 24 35 38 62 43 82 64 120 69
125 3 3 12 18 20 33 8 16 25 40 37 53 13 14 23 32 23 40 0 7 5 14 11 14 5 0 8
4 5 9 -3 5 1 12 10 15 8 3 13 10 10 15 -3 5 1 14 9 21 8 7 15 18 15 24 0 6 9
22 20 36 11 14 20 33 20 43 0 9 4 17 8 17 5 0 21 29 37 65 16 36 33 65 37 65
4 0 7 3 5 8 -2 9 34 95 44 102 10 7 83 164 81 173 -1 4 3 7 9 7 5 0 7 5 4 10
-3 6 -2 10 3 10 5 0 19 24 32 53 13 28 32 72 43 97 12 25 21 47 22 50 1 3 8
19 15 35 7 17 14 35 15 40 2 13 21 61 45 110 26 54 53 118 54 130 1 6 11 37
21 70 11 33 20 65 21 70 0 6 3 17 7 25 3 8 12 47 21 85 30 134 30 133 39 160
3 11 8 31 11 45 2 14 9 43 15 66 6 22 12 76 14 121 2 44 7 85 11 92 4 6 1 11
-6 11 -9 0 -10 3 -2 8 23 14 6 538 -20 652 -5 21 -15 74 -31 165 -2 11 -13 49
-25 84 -19 57 -40 103 -133 289 -11 23 -27 42 -34 42 -7 0 -12 3 -11 8 3 10
-72 125 -88 135 -8 4 -14 15 -14 22 0 8 -7 15 -15 15 -8 0 -15 4 -15 10 0 5
-7 18 -15 27 -8 10 -28 35 -45 57 -16 21 -30 36 -30 32 0 -4 -15 10 -32 31
-45 51 -46 52 -107 101 -29 23 -58 42 -64 42 -6 0 -8 3 -4 6 5 6 -34 42 -113
106 -19 14 -63 41 -99 60 -36 18 -68 36 -71 39 -14 18 -148 89 -167 89 -7 0
-13 5 -13 10 0 6 -6 10 -14 10 -13 0 -43 14 -75 34 -9 6 1 16 40 38 30 16 69
43 86 60 36 35 118 148 107 148 -3 0 -1 7 6 15 7 8 9 15 5 15 -4 0 -3 6 3 13
33 40 53 230 32 302 -4 17 -11 42 -14 57 -4 16 -18 34 -34 42 -25 13 -33 13
-73 -5 -60 -28 -120 -26 -166 3 -21 12 -42 22 -47 20 -4 -1 -13 1 -20 6 -6 5
-32 5 -58 1z"/>
</g>
</svg>
